<?xml version="1.0" standalone="no"?>
<!DOCTYPE svg PUBLIC "-//W3C//DTD SVG 20010904//EN"
 "http://www.w3.org/TR/2001/REC-SVG-20010904/DTD/svg10.dtd">
<svg version="1.0" xmlns="http://www.w3.org/2000/svg"
 width="600.000000pt" height="600.000000pt" viewBox="0 0 600.000000 600.000000"
 preserveAspectRatio="xMidYMid meet">
<g transform="translate(0.000000,600.000000) scale(0.100000,-0.100000)"
fill="#000000" stroke="none">
<path d="M1595 5594 c-272 -49 -524 -178 -726 -371 -226 -217 -363 -470 -426
-788 -17 -84 -18 -180 -17 -1415 0 -1448 -2 -1382 59 -1595 35 -123 150 -351
229 -456 124 -165 325 -333 506 -424 82 -41 239 -96 345 -121 76 -18 146 -19
1440 -19 l1360 0 109 28 c513 130 888 487 1041 992 60 196 58 148 58 1595 0
1469 3 1411 -65 1615 -165 490 -541 829 -1058 951 -70 17 -169 18 -1425 20
-1137 2 -1363 0 -1430 -12z m2755 -20 c52 -8 103 -16 113 -17 9 -1 17 -4 17
-8 0 -3 16 -6 36 -7 20 -1 41 -6 48 -11 6 -5 27 -12 46 -16 19 -4 46 -13 60
-20 44 -24 116 -55 125 -55 4 0 23 -11 42 -26 18 -14 33 -22 33 -19 0 6 90
-52 100 -65 3 -3 21 -16 40 -28 19 -12 31 -22 25 -22 -5 0 0 -6 12 -13 26 -15
128 -111 167 -157 16 -19 38 -46 50 -59 12 -14 15 -21 6 -16 -8 4 -3 -4 13
-17 15 -14 27 -28 27 -32 0 -3 15 -28 34 -54 18 -26 39 -64 47 -85 7 -20 17
-37 21 -37 4 0 8 -9 8 -19 0 -11 5 -21 10 -23 6 -2 12 -16 14 -31 1 -15 6 -30
11 -35 4 -4 5 0 0 8 -5 9 -4 12 1 7 5 -5 9 -22 10 -39 1 -17 7 -34 14 -38 6
-4 11 -11 10 -16 -1 -5 6 -34 14 -64 20 -73 26 -102 35 -180 10 -87 11 -2570
1 -2685 -5 -49 -11 -103 -14 -120 -20 -97 -30 -135 -36 -135 -4 0 -8 -6 -7
-12 1 -33 -4 -49 -13 -43 -6 3 -7 -1 -4 -10 4 -9 -1 -24 -10 -34 -10 -11 -16
-25 -14 -33 4 -17 -112 -249 -121 -243 -4 2 -15 -13 -24 -33 -64 -142 -459
-483 -508 -438 -9 8 -10 8 -6 0 8 -14 -26 -46 -50 -48 -10 -1 -35 -10 -57 -19
-21 -9 -42 -17 -46 -17 -4 0 -21 -7 -36 -15 -16 -8 -42 -15 -57 -15 -16 0 -26
-4 -23 -9 3 -5 -4 -9 -17 -9 -12 0 -51 -7 -87 -16 -59 -15 -188 -17 -1402 -17
-1033 0 -1350 3 -1397 12 -34 7 -61 16 -61 19 0 3 -12 5 -27 4 -16 0 -35 2
-43 6 -8 4 -46 18 -85 30 -38 12 -116 46 -172 75 -56 29 -104 51 -107 49 -3
-2 -4 -1 -1 2 2 4 -24 26 -59 49 -65 43 -111 81 -178 146 -21 20 -40 34 -43
31 -3 -3 -5 1 -5 9 0 8 -9 22 -20 32 -12 10 -18 23 -14 29 4 6 3 8 -3 5 -10
-6 -96 94 -99 115 -1 4 -2 16 -4 26 -1 11 -3 13 -7 4 -3 -7 -24 19 -48 60 -24
39 -41 76 -39 80 3 5 -4 23 -15 41 -27 44 -53 125 -45 139 4 6 3 8 -4 4 -14
-8 -38 77 -63 217 -18 103 -19 173 -16 1445 3 1453 0 1378 57 1545 11 31 20
64 20 72 0 8 10 24 23 36 12 12 16 19 10 15 -7 -4 -13 -3 -13 3 0 5 3 11 8 13
4 2 23 37 42 78 19 41 38 77 43 78 4 2 7 9 7 16 0 7 9 21 19 33 10 11 26 33
35 49 29 50 63 93 69 87 4 -3 11 5 16 18 11 29 183 198 175 172 -3 -12 -1 -10
8 4 7 13 41 41 75 63 34 22 64 44 68 50 3 5 14 10 24 10 10 0 26 9 36 20 10
11 26 20 35 20 9 0 20 4 26 9 10 10 157 68 196 78 13 3 33 5 45 5 13 0 20 4
17 9 -3 5 -2 10 3 10 4 1 17 3 28 5 154 30 217 31 1465 32 1085 1 1278 -1
1360 -14z"/>
<path d="M1615 5504 c-38 -8 -79 -16 -90 -18 -11 -2 -27 -6 -35 -9 -8 -3 -35
-13 -60 -21 -46 -15 -97 -35 -160 -64 -19 -8 -66 -36 -105 -61 -38 -25 -73
-44 -77 -43 -5 1 -8 -2 -8 -6 0 -5 -16 -17 -35 -28 -19 -10 -35 -25 -35 -33 0
-8 -3 -12 -6 -8 -8 8 -46 -24 -80 -68 -9 -11 -12 -13 -8 -5 3 8 -7 -1 -24 -20
-16 -19 -28 -38 -25 -43 2 -4 -1 -6 -8 -5 -7 2 -18 -8 -26 -22 -7 -14 -13 -18
-13 -10 0 8 -9 -3 -20 -25 -27 -55 -79 -117 -92 -109 -7 4 -8 2 -4 -5 6 -10
-33 -99 -116 -264 -5 -10 -6 -22 -3 -27 4 -6 2 -10 -3 -10 -5 0 -9 -6 -9 -12
0 -7 -8 -41 -17 -76 -20 -75 -26 -118 -32 -242 -8 -160 -10 -2520 -1 -2520 4
0 7 -21 6 -47 -2 -71 37 -251 69 -323 8 -19 15 -41 15 -47 0 -7 4 -13 9 -13 4
0 8 -6 8 -14 0 -16 50 -126 50 -111 0 11 22 -25 40 -65 6 -14 21 -35 32 -48
12 -12 17 -22 12 -22 -5 0 -4 -4 1 -8 6 -4 25 -25 42 -47 77 -99 236 -245 333
-305 70 -43 243 -130 260 -130 5 0 10 -5 10 -11 0 -5 4 -8 9 -5 5 4 22 1 38
-5 15 -6 39 -13 53 -15 14 -2 43 -8 65 -13 82 -20 102 -23 165 -26 84 -4 1306
-4 2020 1 496 3 591 7 685 29 18 4 38 8 98 18 9 2 23 9 29 15 7 7 18 12 26 12
7 0 48 16 90 37 42 20 80 37 83 37 3 1 33 18 67 39 34 21 64 37 68 37 4 -1 10
2 13 7 3 5 33 31 66 58 103 87 234 228 228 247 -2 5 5 8 14 8 9 0 13 3 10 6
-4 4 7 24 23 44 17 21 30 41 30 45 0 4 9 18 20 32 11 14 20 34 20 44 0 9 3 19
8 21 7 3 46 75 48 87 2 20 27 101 39 126 8 17 16 42 19 55 2 14 10 48 16 75
16 65 20 116 20 248 0 70 3 106 10 102 6 -4 6 3 0 21 -7 18 -9 403 -6 1188 5
1215 4 1253 -38 1385 -8 25 -18 61 -21 79 -4 18 -13 46 -22 63 -8 16 -16 35
-17 42 -1 7 -14 34 -29 61 -15 27 -27 51 -27 54 0 9 -104 167 -112 170 -5 2
-8 10 -8 17 0 7 -7 16 -16 19 -8 3 -12 11 -8 17 4 7 3 10 -2 7 -5 -3 -20 6
-34 20 -14 13 -20 22 -13 18 6 -3 15 -1 19 5 4 7 3 9 -3 6 -14 -9 -54 22 -51
40 2 9 -5 17 -16 19 -10 1 -38 21 -60 43 -23 23 -46 41 -51 41 -6 0 -21 10
-35 23 -14 12 -37 28 -53 36 -20 11 -24 17 -15 23 8 6 5 7 -9 3 -13 -4 -23 -2
-23 4 0 5 -10 13 -22 17 -13 3 -30 13 -39 20 -9 8 -39 23 -68 33 -28 10 -49
20 -46 23 3 2 -1 5 -7 5 -7 0 -52 14 -100 31 -82 29 -166 46 -215 45 -13 -1
-23 3 -23 7 0 5 -593 8 -1317 8 -1075 0 -1331 -3 -1388 -14z m2776 -30 c45 -8
118 -27 162 -41 399 -126 725 -452 851 -851 57 -183 56 -153 56 -1551 0 -1392
1 -1373 -55 -1566 -35 -123 -140 -332 -218 -435 -206 -271 -496 -444 -837
-499 -43 -7 -500 -11 -1351 -11 -1407 0 -1360 -2 -1546 59 -250 82 -488 253
-645 464 -115 156 -195 335 -240 539 l-23 103 0 1335 0 1335 23 104 c113 512
502 901 1012 1011 80 17 163 19 1406 19 1162 1 1332 -1 1405 -15z"/>
<path d="M2395 5150 c-39 -12 -65 -47 -65 -87 0 -50 42 -128 161 -295 59 -84
109 -157 109 -163 0 -5 -24 15 -52 46 -58 61 -138 123 -208 162 -141 78 -348
78 -410 0 -34 -44 -11 -95 70 -152 96 -68 353 -186 269 -123 -22 15 -103 57
-169 86 -27 11 -109 64 -126 81 -30 29 -46 65 -35 78 6 8 10 16 8 18 -1 2 -1
3 1 2 2 -1 20 10 39 23 28 19 46 23 79 20 26 -2 44 0 44 6 0 7 5 7 13 0 7 -6
23 -9 34 -6 19 5 110 -18 138 -35 6 -3 15 -6 20 -6 6 -1 9 -6 8 -13 -2 -6 4
-9 12 -6 8 3 21 -1 29 -9 9 -8 32 -25 53 -38 46 -28 63 -44 63 -58 0 -6 6 -11
14 -11 7 0 21 -11 32 -24 10 -14 21 -23 26 -20 7 5 12 -11 9 -29 -1 -5 3 -6 9
-2 5 3 13 -1 16 -9 3 -9 12 -16 18 -16 7 0 20 -16 29 -35 l17 -35 -58 -1 c-31
-1 -78 -2 -104 -2 -26 0 -45 -4 -43 -8 11 -18 -58 -17 -112 2 -51 17 -64 18
-108 8 -136 -32 -293 -127 -406 -246 -122 -128 -192 -251 -242 -424 -14 -48
-30 -97 -37 -109 -17 -33 -44 -135 -66 -255 -3 -16 -7 -52 -9 -80 -6 -74 11
-32 19 47 7 75 47 240 70 290 8 18 30 67 49 109 151 334 480 577 860 635 184
29 396 6 560 -60 33 -14 63 -24 65 -22 2 2 -25 20 -61 40 l-64 36 -7 74 c-20
216 -139 448 -281 546 -87 60 -212 91 -280 70z m153 -31 c53 -14 112 -41 107
-50 -3 -4 4 -10 15 -14 30 -10 110 -94 110 -117 0 -6 3 -8 7 -5 7 7 19 -11 58
-88 13 -27 25 -58 25 -67 0 -10 5 -18 11 -18 6 0 9 -7 5 -15 -3 -8 -2 -15 3
-15 7 0 22 -43 26 -75 0 -5 6 -30 12 -55 19 -73 22 -149 7 -143 -8 3 -11 10
-7 16 4 6 -3 8 -21 3 -15 -4 -47 0 -76 10 -27 9 -57 13 -66 10 -8 -3 -33 -3
-55 0 -32 5 -43 13 -61 45 -12 22 -28 39 -35 39 -7 0 -13 5 -13 10 0 6 4 10 9
10 14 0 21 29 9 36 -7 5 -8 2 -3 -6 5 -8 4 -11 -3 -6 -6 3 -13 20 -17 36 -4
17 -13 30 -21 30 -8 0 -14 7 -14 15 0 8 -5 15 -12 15 -6 0 -9 3 -6 6 3 3 -4
16 -16 29 -42 46 -82 105 -72 105 4 0 -5 12 -19 27 -14 15 -25 34 -25 41 0 7
-7 15 -15 18 -9 4 -15 11 -14 18 3 24 -1 37 -11 31 -5 -3 -10 0 -11 7 -1 7 -3
29 -4 49 -5 49 24 77 85 81 38 3 59 0 108 -13z m-218 -639 c21 -6 22 -8 8 -15
-9 -4 -22 -4 -28 0 -5 3 -10 2 -10 -4 0 -5 -15 -13 -32 -16 -18 -4 -39 -12
-47 -19 -8 -6 -16 -10 -18 -8 -2 1 -37 -14 -78 -33 -41 -20 -77 -35 -81 -35
-4 1 -10 -2 -13 -7 -3 -5 -34 -29 -69 -52 -55 -37 -65 -41 -80 -29 -15 12 -16
11 -3 -4 12 -16 9 -22 -11 -19 -5 0 -8 -4 -8 -10 0 -6 -21 -33 -47 -59 -27
-26 -58 -60 -70 -76 -27 -36 -62 -74 -69 -74 -9 0 72 119 91 132 5 4 6 8 2 8
-5 0 33 43 84 95 85 86 105 100 215 156 101 51 128 61 162 58 29 -3 38 -1 35
8 -6 14 26 16 67 3z"/>
<path d="M1961 4774 c0 -11 3 -14 6 -6 3 7 2 16 -1 19 -3 4 -6 -2 -5 -13z"/>
<path d="M3100 4386 c0 -2 17 -14 38 -27 96 -57 181 -118 229 -166 29 -29 59
-53 66 -53 6 0 -6 17 -28 37 -22 20 -39 40 -38 45 2 4 -4 5 -12 2 -9 -4 -15 0
-15 7 0 12 -84 75 -115 88 -5 2 -12 7 -15 10 -8 10 -110 63 -110 57z"/>
<path d="M3466 4085 c20 -25 45 -60 56 -78 34 -59 98 -196 98 -211 0 -8 5 -18
10 -21 6 -3 10 -16 11 -28 0 -12 3 -16 6 -10 13 33 -110 297 -151 325 -6 4 -8
8 -4 8 8 0 -48 60 -57 60 -3 0 10 -20 31 -45z"/>
<path d="M2572 4039 c-49 -24 -97 -78 -113 -127 -24 -73 19 -84 73 -18 44 52
93 77 168 85 46 5 55 9 58 28 8 52 -105 72 -186 32z m158 -16 c9 -8 -26 -23
-57 -23 -49 0 -128 -45 -162 -92 -29 -39 -31 -40 -31 -17 0 14 9 36 19 48 11
13 21 27 23 32 2 6 11 11 20 13 10 1 21 6 25 11 4 4 1 5 -7 0 -13 -7 -13 -6 0
8 8 8 30 18 48 20 19 3 37 8 40 11 6 6 73 -3 82 -11z"/>
<path d="M3656 3690 c2 -19 10 -71 16 -115 5 -44 13 -82 15 -85 11 -10 -7 147
-22 190 -13 39 -14 41 -9 10z"/>
<path d="M2712 3649 c-112 -57 -171 -215 -137 -366 21 -91 61 -154 119 -188
93 -54 179 -43 257 35 131 131 112 409 -37 510 -52 35 -143 39 -202 9z m195
-40 c24 -17 43 -32 43 -34 0 -1 -18 -1 -40 2 -36 5 -43 2 -75 -31 -29 -31 -35
-45 -35 -82 0 -72 46 -134 98 -134 42 0 90 35 101 72 l9 33 2 -35 c1 -19 2
-39 1 -44 -1 -4 -3 -27 -5 -50 -2 -23 -13 -61 -25 -84 -12 -23 -18 -42 -15
-42 10 0 -45 -48 -81 -71 -32 -21 -107 -26 -147 -10 -26 11 -93 67 -93 78 0 5
-8 19 -17 33 -25 38 -32 76 -32 170 0 72 5 93 27 137 30 59 73 103 100 103 11
0 15 4 11 12 -4 6 -3 8 4 5 5 -4 21 -3 34 2 35 14 88 2 135 -30z m18 -61 c60
-27 74 -120 26 -169 -36 -35 -51 -36 -89 -4 -53 44 -49 139 7 170 32 18 25 17
56 3z"/>
<path d="M3605 3464 c-53 -17 -86 -58 -147 -178 -68 -135 -93 -171 -149 -212
-27 -20 -49 -39 -49 -44 0 -16 81 33 107 66 53 63 73 92 73 103 0 6 5 11 10
11 6 0 10 6 10 13 0 6 11 34 25 61 13 27 21 54 18 59 -3 6 -1 7 5 3 7 -4 12
-3 12 3 0 6 21 32 46 58 25 26 42 41 38 33 -6 -12 -5 -13 8 -3 20 17 63 12
122 -15 27 -12 53 -22 58 -22 13 0 71 -32 79 -44 4 -5 12 -5 18 -2 6 4 11 3
11 -3 0 -6 6 -8 13 -5 8 3 20 -2 27 -11 7 -8 20 -15 29 -15 10 0 26 -7 37 -15
10 -8 25 -15 33 -15 7 0 34 -11 60 -24 26 -12 65 -29 86 -36 22 -7 51 -18 65
-25 14 -7 52 -25 85 -40 33 -14 74 -32 90 -40 17 -7 50 -21 75 -30 73 -26 161
-71 153 -78 -3 -4 6 -7 20 -7 15 0 35 -4 45 -10 9 -5 44 -21 77 -36 89 -39
189 -88 195 -96 3 -3 18 -10 33 -13 15 -4 27 -11 27 -17 0 -5 4 -7 9 -3 5 3
15 0 23 -7 7 -7 20 -14 28 -16 8 -2 33 -15 55 -30 22 -14 46 -27 54 -28 17 -3
31 -23 31 -46 0 -14 -11 -16 -87 -12 -134 7 -177 11 -323 27 -158 18 -357 31
-350 24 14 -15 601 -77 723 -77 59 0 83 16 73 47 -18 55 -315 200 -1191 578
-16 7 -86 36 -155 65 -69 29 -143 60 -165 69 -38 17 -81 33 -115 44 -9 3 -34
-1 -55 -9z"/>
<path d="M1460 3244 c0 -90 29 -257 50 -291 10 -16 10 -16 5 3 -21 78 -36 173
-41 264 -4 58 -8 107 -10 109 -2 2 -4 -36 -4 -85z"/>
<path d="M3153 3065 c-17 -7 -39 -25 -49 -40 -15 -24 -16 -28 -2 -42 13 -12
20 -13 38 -3 19 10 26 8 49 -13 28 -27 176 -102 225 -113 26 -6 29 -5 23 15
-6 24 -6 24 28 11 38 -15 212 -51 270 -56 28 -3 57 -7 65 -10 8 -3 29 -8 45
-10 17 -2 46 -7 65 -11 19 -3 38 -6 41 -5 6 1 116 -14 169 -23 14 -2 81 -11
150 -20 147 -18 267 -45 250 -55 -7 -4 1 -7 17 -7 72 1 129 -17 144 -44 6 -12
19 -18 37 -18 l27 2 -27 4 c-16 2 -28 10 -28 18 0 10 7 11 41 1 22 -7 43 -17
47 -22 4 -6 57 -16 117 -23 182 -22 180 -24 -65 -56 -14 -2 -61 -6 -105 -10
-44 -4 -83 -9 -86 -11 -16 -9 -422 -13 -509 -5 -52 6 -147 13 -210 16 -63 3
-158 12 -210 20 -52 7 -122 17 -155 20 -32 4 -68 9 -80 11 -11 2 -44 8 -74 14
-30 5 -59 16 -63 23 -33 48 -55 107 -64 172 -1 11 -9 39 -17 62 -9 22 -14 43
-12 45 2 2 -5 9 -16 17 -19 11 -20 10 -14 -10 4 -13 20 -71 36 -130 30 -117
60 -173 99 -188 58 -23 373 -65 650 -87 245 -19 542 -15 775 11 143 15 282 39
292 49 13 12 -8 35 -39 41 -18 4 -159 35 -313 70 -185 42 -358 74 -510 94
-300 40 -408 57 -590 93 -82 17 -161 31 -175 32 -28 2 -129 52 -207 103 -25
17 -26 17 -4 27 26 11 27 32 2 46 -25 13 -39 12 -78 -5z m42 -35 c8 -25 55
-70 72 -70 7 0 13 -7 13 -15 0 -21 -7 -19 -35 11 -14 15 -25 24 -25 20 0 -4
-11 5 -26 19 -20 20 -29 23 -45 15 -23 -13 -25 -3 -2 22 21 24 40 23 48 -2z
m25 10 c0 -5 -5 -10 -11 -10 -5 0 -7 5 -4 10 3 6 8 10 11 10 2 0 4 -4 4 -10z
m107 -124 c0 -8 -6 -12 -15 -9 -11 5 -11 7 0 14 7 5 13 9 14 9 0 0 1 -6 1 -14z
m72 -30 c10 -12 8 -13 -8 -9 -12 3 -18 9 -15 14 7 12 10 11 23 -5z"/>
<path d="M2395 3063 c-156 -33 -228 -182 -134 -279 51 -53 121 -78 209 -76 86
3 138 23 190 77 31 32 35 42 35 89 0 61 -33 119 -86 150 -59 35 -154 52 -214
39z m140 -24 c36 -12 65 -26 65 -30 0 -5 6 -9 14 -9 21 0 66 -66 71 -105 8
-57 -30 -117 -94 -150 -36 -18 -144 -35 -163 -24 -7 4 -30 9 -51 12 -57 7
-103 40 -131 94 -19 38 -20 72 -3 110 26 58 69 89 152 109 68 17 66 17 140 -7z"/>
<path d="M1525 2900 c8 -54 108 -248 165 -318 28 -35 48 -68 44 -74 -4 -7 -3
-8 5 -4 6 4 17 1 25 -7 8 -7 27 -24 43 -38 26 -22 93 -146 93 -172 0 -6 6 -18
14 -26 8 -9 16 -27 18 -41 2 -14 9 -34 15 -45 17 -31 62 -179 82 -272 19 -84
37 -128 25 -62 -15 88 -50 213 -85 310 -34 95 -54 142 -107 259 -9 19 -28 44
-42 55 -45 35 -121 119 -157 174 -41 63 -109 198 -129 256 l-14 40 5 -35z"/>
<path d="M3470 2840 c0 -4 13 -10 29 -12 17 -2 28 -1 26 3 -7 10 -55 18 -55 9z"/>
<path d="M3548 2823 c7 -3 16 -2 19 1 4 3 -2 6 -13 5 -11 0 -14 -3 -6 -6z"/>
<path d="M3838 2753 c7 -3 16 -2 19 1 4 3 -2 6 -13 5 -11 0 -14 -3 -6 -6z"/>
<path d="M3880 2750 c8 -5 22 -9 30 -9 10 0 8 3 -5 9 -27 12 -43 12 -25 0z"/>
<path d="M3961 2736 c2 -2 20 -6 39 -10 25 -4 31 -3 20 4 -14 9 -69 15 -59 6z"/>
<path d="M4128 2703 c7 -3 16 -2 19 1 4 3 -2 6 -13 5 -11 0 -14 -3 -6 -6z"/>
<path d="M4164 2699 c-4 -7 -3 -9 4 -5 6 3 23 1 39 -5 15 -5 24 -6 18 -1 -18
17 -53 23 -61 11z"/>
<path d="M4248 2683 c7 -3 16 -2 19 1 4 3 -2 6 -13 5 -11 0 -14 -3 -6 -6z"/>
<path d="M4309 2677 c5 -5 26 -7 47 -5 l39 3 -47 5 c-26 3 -43 1 -39 -3z"/>
<path d="M4608 2633 c6 -2 18 -2 25 0 6 3 1 5 -13 5 -14 0 -19 -2 -12 -5z"/>
<path d="M3280 2529 c-99 -88 -259 -178 -372 -209 -26 -7 -46 -16 -43 -20 11
-18 222 73 315 136 73 50 157 121 150 128 -3 2 -25 -14 -50 -35z"/>
<path d="M2383 2275 c32 -31 61 -54 64 -51 3 3 -14 24 -38 46 -26 24 -36 37
-24 33 14 -4 17 -3 10 5 -5 6 -23 14 -40 17 -28 6 -26 3 28 -50z"/>
<path d="M2410 2302 c0 -8 45 -18 128 -28 12 -2 20 1 18 5 -3 5 -27 11 -53 14
-26 4 -58 9 -70 13 -13 3 -23 2 -23 -4z"/>
<path d="M2777 2293 c-20 -2 -35 -8 -32 -12 4 -8 93 4 103 14 5 5 -3 5 -71 -2z"/>
<path d="M2608 2273 c23 -2 59 -2 80 0 20 2 1 4 -43 4 -44 0 -61 -2 -37 -4z"/>
<path d="M2460 2212 c0 -8 99 -75 155 -105 86 -46 233 -102 243 -93 5 6 4 6
-90 36 -38 12 -68 26 -68 31 0 5 -7 9 -16 9 -15 0 -104 50 -186 105 -21 14
-38 22 -38 17z"/>
<path d="M2895 2001 c11 -5 30 -10 42 -10 13 -1 24 -9 28 -23 16 -55 48 -138
52 -135 5 6 -43 147 -53 157 -5 5 -27 11 -49 14 -29 5 -35 4 -20 -3z"/>
<path d="M1420 1948 c-36 -5 -108 -24 -160 -42 -80 -27 -95 -36 -95 -53 0 -28
138 -196 238 -288 69 -65 195 -145 226 -145 24 0 9 19 -28 33 -22 9 -42 21
-46 27 -3 5 -13 10 -20 10 -17 0 -55 30 -55 43 0 4 5 5 12 1 7 -4 8 -3 4 4 -4
6 -14 8 -23 5 -9 -3 -21 0 -27 8 -6 8 -26 25 -43 38 -18 12 -33 27 -33 33 0 6
-18 26 -39 45 -27 23 -38 41 -36 54 2 11 0 17 -6 14 -9 -6 -80 62 -76 74 1 3
-2 7 -7 8 -16 3 -25 27 -14 40 13 15 170 64 215 66 18 1 33 4 33 7 0 8 141 5
190 -4 56 -10 131 -43 147 -65 7 -9 13 -12 13 -8 0 10 23 -9 76 -63 63 -65 73
-78 66 -84 -3 -3 2 -6 11 -6 22 0 47 -27 47 -51 0 -11 -4 -18 -9 -15 -12 8
-44 -31 -46 -56 -1 -11 -9 -26 -18 -33 -19 -14 -39 -92 -26 -101 5 -3 9 -28 9
-56 0 -37 5 -55 18 -64 15 -12 15 -15 2 -24 -13 -8 -12 -10 4 -10 14 0 17 5
12 23 -26 89 -28 125 -11 182 20 70 53 121 94 146 34 20 61 25 61 10 0 -5 15
-8 33 -6 37 4 103 -25 99 -44 -1 -7 2 -10 6 -7 11 6 39 -22 44 -44 2 -8 8 -18
13 -23 6 -4 2 -13 -10 -23 -62 -46 -85 -67 -85 -77 0 -6 16 4 35 23 36 35 43
34 24 -3 -10 -19 -8 -18 15 5 26 25 66 32 94 14 5 -3 44 -12 88 -21 43 -9 83
-21 89 -26 5 -5 14 -9 20 -9 5 0 3 5 -5 10 -11 7 -1 9 35 9 47 -2 48 -2 15 -9
-22 -4 5 -7 72 -6 60 1 108 3 108 6 0 3 24 6 53 7 58 1 157 20 172 33 6 5 26
11 45 15 38 7 82 40 93 68 4 11 -1 34 -12 55 -28 58 -40 115 -26 130 1 2 35
-14 76 -35 88 -46 171 -123 199 -186 20 -45 37 -163 22 -153 -4 2 -7 -16 -6
-42 1 -26 -2 -55 -7 -64 -7 -13 -6 -16 3 -13 7 3 18 1 24 -3 15 -10 75 -99 73
-109 -1 -4 0 -11 1 -15 1 -5 3 -11 4 -15 1 -5 7 -17 13 -29 20 -34 28 -225 13
-281 -7 -26 -16 -52 -20 -58 -3 -5 -7 -21 -8 -34 0 -13 -5 -27 -9 -30 -7 -5
-35 -57 -38 -71 0 -3 -7 -16 -14 -28 -7 -13 -10 -26 -7 -30 10 -9 33 28 66
107 92 218 76 438 -43 593 -34 44 -35 49 -25 85 14 51 5 140 -20 197 -28 62
-115 147 -190 185 -70 35 -164 72 -170 67 -2 -3 1 -13 7 -25 6 -11 24 -55 40
-98 16 -43 32 -85 36 -94 8 -20 -79 -60 -185 -85 -140 -34 -416 -23 -576 22
-43 12 -52 19 -63 50 -27 76 -131 147 -191 131 -15 -4 -18 5 -24 56 -3 33 -8
62 -11 65 -5 5 -73 -44 -93 -68 -10 -11 -15 -12 -18 -3 -3 7 -23 34 -44 60
-69 88 -185 154 -302 173 -72 11 -98 11 -188 -2z m628 -204 c-4 -3 -2 -19 2
-35 8 -26 6 -31 -23 -45 -18 -9 -29 -13 -25 -9 4 4 0 14 -9 23 -14 14 -13 18
16 44 17 15 34 28 38 28 3 0 4 -3 1 -6z m-83 -143 c-3 -6 -11 -11 -16 -11 -5
0 -4 6 3 14 14 16 24 13 13 -3z"/>
<path d="M3020 1806 c0 -8 5 -18 10 -21 6 -3 10 1 10 9 0 8 -4 18 -10 21 -5 3
-10 -1 -10 -9z"/>
<path d="M1615 1694 c11 -8 29 -22 40 -32 11 -9 29 -22 40 -28 11 -6 41 -23
67 -37 26 -15 50 -27 54 -27 10 0 -54 42 -100 65 -57 29 -82 55 -65 66 10 6 3
9 -21 9 -33 -1 -34 -1 -15 -16z"/>
<path d="M3100 1695 c0 -9 4 -14 9 -10 18 10 39 -35 36 -77 -2 -22 0 -37 5
-32 19 21 18 51 -3 88 -24 43 -47 58 -47 31z"/>
<path d="M1720 1683 c8 -3 19 -11 23 -17 6 -7 7 -6 4 4 -2 8 -12 16 -23 17
-13 2 -15 1 -4 -4z"/>
<path d="M1795 1648 c22 -11 48 -27 58 -36 9 -8 19 -13 22 -11 6 7 -91 69
-107 69 -7 -1 5 -10 27 -22z"/>
<path d="M1855 1560 c3 -5 8 -10 11 -10 2 0 4 5 4 10 0 6 -5 10 -11 10 -5 0
-7 -4 -4 -10z"/>
<path d="M1700 1428 c-115 -24 -237 -108 -343 -236 -92 -111 -169 -220 -163
-231 3 -5 16 -11 28 -14 13 -3 59 -14 103 -26 173 -45 358 -35 461 25 66 39
146 125 184 197 18 34 34 63 35 65 1 1 24 -7 51 -19 41 -19 55 -20 87 -12 38
11 41 10 71 -25 163 -188 448 -385 756 -522 123 -55 250 -100 277 -99 22 0
-65 41 -154 71 -34 12 -63 26 -63 30 0 5 -5 6 -12 2 -8 -5 -9 -2 -4 11 5 15 4
16 -9 5 -12 -10 -23 -7 -60 14 -25 15 -45 24 -45 21 0 -3 -18 6 -40 20 -22 14
-43 25 -47 25 -3 0 -14 6 -22 14 -9 8 -23 16 -31 18 -8 2 -21 11 -28 21 -8 10
-19 17 -25 16 -23 -3 -40 1 -33 8 3 4 -16 17 -44 30 -27 12 -50 28 -50 33 0 6
-4 8 -10 5 -5 -3 -10 -2 -10 4 0 5 -10 13 -22 17 -13 4 -36 20 -52 35 -17 16
-34 29 -38 29 -5 0 -6 5 -3 10 4 6 2 9 -4 8 -14 -4 -100 64 -101 80 0 7 -4 11
-9 7 -5 -3 -18 8 -27 25 -10 16 -22 30 -26 30 -9 0 -93 87 -94 98 0 4 -4 15
-9 26 -4 10 -12 32 -16 50 -8 30 -7 9 4 -78 2 -17 -5 -20 -40 -22 -27 -1 -40
3 -36 9 3 6 1 7 -5 3 -7 -4 -25 1 -41 10 -36 22 -53 11 -81 -51 -11 -23 -33
-57 -50 -75 -17 -18 -35 -41 -41 -52 -5 -10 -15 -18 -22 -18 -7 0 -18 -9 -25
-20 -7 -11 -21 -20 -32 -20 -11 0 -19 -6 -18 -12 2 -7 -4 -13 -12 -13 -8 -1
-26 -7 -40 -15 -67 -36 -276 -32 -414 9 -65 19 -106 41 -78 41 7 0 12 6 12 14
0 8 3 16 8 18 4 2 26 28 50 60 64 83 91 110 104 102 7 -4 8 -3 4 5 -4 6 -13 8
-19 5 -7 -4 7 12 31 35 23 23 42 47 42 53 0 6 3 8 7 5 3 -4 16 4 28 17 11 12
29 22 39 20 10 -1 15 0 12 3 -8 9 63 55 74 48 5 -3 13 2 18 11 7 13 22 17 53
16 34 -1 40 1 29 9 -12 8 -9 9 13 5 15 -4 27 -2 27 4 0 13 87 13 95 0 4 -6 11
-8 16 -4 38 23 -80 32 -171 12z"/>
<path d="M2328 1433 c7 -3 16 -2 19 1 4 3 -2 6 -13 5 -11 0 -14 -3 -6 -6z"/>
<path d="M2208 1397 c-3 -19 -2 -25 4 -19 6 6 8 18 6 28 -3 14 -5 12 -10 -9z"/>
<path d="M1775 1400 c-3 -6 1 -7 9 -4 18 7 21 14 7 14 -6 0 -13 -4 -16 -10z"/>
<path d="M2156 1394 c-8 -20 -8 -49 0 -42 3 4 6 12 8 20 1 7 5 19 9 26 5 6 4
12 -1 12 -6 0 -13 -7 -16 -16z"/>
<path d="M2230 1360 c0 -5 5 -10 11 -10 5 0 7 5 4 10 -3 6 -8 10 -11 10 -2 0
-4 -4 -4 -10z"/>
<path d="M2264 1331 c3 -5 16 -11 28 -14 22 -6 22 -5 4 8 -22 17 -40 20 -32 6z"/>
<path d="M2230 1299 c32 -25 141 -82 146 -76 3 3 -13 14 -35 25 -70 37 -86 47
-94 60 -4 6 -16 12 -25 12 -13 0 -12 -5 8 -21z"/>
<path d="M2183 1275 c0 -22 2 -30 4 -17 2 12 2 30 0 40 -3 9 -5 -1 -4 -23z"/>
<path d="M2333 1289 c9 -6 15 -14 13 -18 -3 -4 5 -8 17 -8 21 -2 21 -1 -3 17
-14 11 -29 20 -35 19 -5 0 -2 -4 8 -10z"/>
<path d="M2397 1249 c6 -6 9 -17 7 -24 -4 -8 17 -20 57 -34 65 -22 93 -21 43
1 -16 7 -32 17 -35 22 -4 5 -12 5 -18 2 -6 -4 -11 -2 -11 4 0 7 -7 10 -14 7
-10 -4 -13 -1 -10 7 3 7 -3 17 -13 20 -14 6 -15 4 -6 -5z"/>
<path d="M1845 1230 c-3 -5 -1 -10 4 -10 6 0 11 5 11 10 0 6 -2 10 -4 10 -3 0
-8 -4 -11 -10z"/>
<path d="M3380 1210 c0 -5 5 -10 11 -10 5 0 7 5 4 10 -3 6 -8 10 -11 10 -2 0
-4 -4 -4 -10z"/>
<path d="M3270 1160 c-9 -6 -10 -10 -3 -10 6 0 15 5 18 10 8 12 4 12 -15 0z"/>
<path d="M3317 1084 c-15 -13 -24 -24 -20 -24 12 1 58 38 53 43 -3 3 -18 -6
-33 -19z"/>
<path d="M3000 1060 c0 -5 7 -7 15 -4 8 4 15 8 15 10 0 2 -7 4 -15 4 -8 0 -15
-4 -15 -10z"/>
<path d="M2970 1039 c74 -21 105 -25 80 -9 -8 5 -27 10 -42 10 -16 0 -28 5
-28 10 0 6 -17 10 -37 9 -35 0 -33 -2 27 -20z"/>
<path d="M3265 1050 c-3 -5 -1 -10 4 -10 6 0 11 5 11 10 0 6 -2 10 -4 10 -3 0
-8 -4 -11 -10z"/>
<path d="M3078 1013 c7 -3 16 -2 19 1 4 3 -2 6 -13 5 -11 0 -14 -3 -6 -6z"/>
<path d="M2098 1001 c-36 -3 -69 -9 -73 -12 -8 -8 107 0 155 11 41 9 17 10
-82 1z"/>
<path d="M2220 990 c0 -5 59 -38 130 -74 72 -36 130 -62 130 -59 0 4 5 2 12
-5 7 -7 17 -12 22 -12 18 0 -30 29 -95 57 -35 15 -94 44 -131 65 -38 20 -68
33 -68 28z"/>
<path d="M1993 975 c-7 -7 -15 -24 -18 -37 -15 -69 -17 -82 -11 -77 6 6 46
122 43 125 -1 1 -7 -4 -14 -11z"/>
<path d="M2513 925 c0 -8 4 -12 9 -9 5 3 6 10 3 15 -9 13 -12 11 -12 -6z"/>
<path d="M1935 822 c-5 -25 -108 -209 -124 -222 -19 -16 -54 -62 -41 -55 37
22 99 114 166 246 27 52 28 59 15 59 -5 0 -12 -13 -16 -28z"/>
<path d="M3427 479 c7 -7 15 -10 18 -7 3 3 -2 9 -12 12 -14 6 -15 5 -6 -5z"/>
</g>
</svg>
