<?xml version="1.0" standalone="no"?>
<!DOCTYPE svg PUBLIC "-//W3C//DTD SVG 20010904//EN"
 "http://www.w3.org/TR/2001/REC-SVG-20010904/DTD/svg10.dtd">
<svg version="1.0" xmlns="http://www.w3.org/2000/svg"
 width="600.000000pt" height="338.000000pt" viewBox="0 0 600.000000 338.000000"
 preserveAspectRatio="xMidYMid meet">
<g transform="translate(0.000000,338.000000) scale(0.100000,-0.100000)"
fill="#000000" stroke="none">
<path d="M1120 2819 c-105 -10 -239 -48 -346 -98 -304 -143 -516 -426 -585
-781 -19 -98 -16 -328 5 -428 78 -367 310 -657 638 -798 293 -125 636 -106
899 52 152 91 315 267 397 429 84 168 122 334 122 535 0 161 -17 262 -65 398
-141 393 -463 650 -866 692 -56 5 -104 9 -108 9 -3 -1 -44 -5 -91 -10z m359
-79 c468 -135 773 -609 721 -1119 -69 -663 -657 -1082 -1254 -894 -539 170
-841 749 -681 1309 108 375 378 632 755 715 118 26 351 21 459 -11z m-1108
-1597 c13 -16 12 -17 -3 -4 -10 7 -18 15 -18 17 0 8 8 3 21 -13z m1539 -207
c0 -2 -8 -10 -17 -17 -16 -13 -17 -12 -4 4 13 16 21 21 21 13z m-1125 -174
c-3 -3 -11 0 -18 7 -9 10 -8 11 6 5 10 -3 15 -9 12 -12z"/>
<path d="M1011 2623 c-13 -23 1 -54 54 -123 25 -32 45 -62 45 -66 0 -3 -20 11
-43 33 -52 48 -104 67 -164 60 -53 -6 -57 -9 -49 -41 4 -18 24 -33 72 -57 l66
-33 -40 -12 c-102 -30 -181 -111 -241 -249 -67 -152 -67 -289 1 -417 17 -32
27 -62 22 -69 -5 -8 -3 -10 6 -4 7 5 21 -2 35 -19 12 -14 24 -23 27 -20 3 3
-9 22 -28 42 -40 44 -71 102 -90 175 -53 200 58 427 253 520 64 30 75 32 178
32 130 -1 197 -22 273 -87 57 -49 119 -156 128 -221 4 -26 10 -49 14 -52 14
-9 -12 101 -36 152 -31 64 -103 146 -144 163 -24 10 -28 15 -18 22 10 7 9 8
-4 4 -10 -3 -31 -1 -47 5 -25 9 -30 17 -36 57 -13 88 -59 166 -119 203 -39 24
-101 25 -115 2z m89 -13 c0 -5 -8 -11 -17 -13 -10 -3 -1 -4 19 -2 36 3 37 2
26 -18 -10 -20 -10 -21 5 -8 14 11 20 11 32 1 18 -15 20 -34 3 -24 -7 4 -1 -6
14 -22 33 -35 56 -126 30 -116 -10 3 -13 1 -8 -6 5 -9 0 -9 -19 -2 -15 6 -31
8 -36 4 -13 -7 -37 18 -31 34 2 7 -2 20 -10 29 -11 14 -11 16 2 8 13 -8 13 -7
1 8 -14 18 -13 19 18 21 28 2 34 12 21 33 -10 16 -10 16 -5 -4 5 -17 2 -21
-12 -18 -10 1 -25 -1 -34 -6 -10 -5 -21 -3 -27 3 -16 16 -15 31 1 22 8 -5 8
-3 -2 9 -7 9 -18 14 -25 10 -6 -3 -8 -3 -4 1 4 5 3 19 -2 32 -7 18 -5 26 7 32
17 10 53 4 53 -8z m-103 -121 c21 -11 46 -30 56 -42 10 -12 15 -15 11 -7 -7
13 -6 13 12 0 50 -39 50 -42 -5 -36 -33 4 -50 2 -46 -4 12 -20 -16 -9 -46 17
-17 15 -36 28 -42 29 -41 4 -40 3 -26 21 9 11 10 14 2 9 -7 -4 -21 -2 -30 4
-16 10 -16 11 2 6 20 -6 20 -6 1 9 -18 14 -17 15 27 15 28 0 61 -8 84 -21z"/>
<path d="M1084 2569 c-3 -6 -1 -16 5 -22 9 -9 10 -7 5 7 -6 15 -4 17 6 11 9
-5 11 -4 6 3 -9 15 -13 15 -22 1z"/>
<path d="M770 2606 c0 -2 7 -7 16 -10 8 -3 12 -2 9 4 -6 10 -25 14 -25 6z"/>
<path d="M506 2428 c3 -5 10 -6 15 -3 13 9 11 12 -6 12 -8 0 -12 -4 -9 -9z"/>
<path d="M945 2321 c-3 -5 -2 -12 3 -15 5 -3 9 1 9 9 0 17 -3 19 -12 6z"/>
<path d="M730 2316 c0 -2 8 -10 18 -17 15 -13 16 -12 3 4 -13 16 -21 21 -21
13z"/>
<path d="M1089 2207 c-20 -15 -42 -57 -35 -64 3 -3 19 6 36 21 17 14 43 26 57
26 35 0 24 24 -13 27 -16 2 -36 -3 -45 -10z"/>
<path d="M785 2189 c-4 -6 -5 -12 -2 -15 2 -3 7 2 10 11 7 17 1 20 -8 4z"/>
<path d="M1147 2059 c-69 -40 -56 -196 18 -215 61 -15 104 22 112 99 11 91
-62 155 -130 116z m28 -48 c-5 -29 -2 -42 10 -55 9 -9 13 -16 8 -16 -4 -1 3
-7 17 -15 19 -10 27 -10 33 -2 5 8 7 4 4 -8 -2 -11 -9 -19 -15 -17 -7 1 -12
-4 -12 -12 0 -7 -11 -16 -25 -18 -14 -3 -25 -2 -25 2 0 4 -8 10 -18 13 -11 2
-21 14 -25 26 -3 14 -1 19 6 14 8 -4 7 -1 -1 9 -14 17 -5 52 25 93 24 33 26
31 18 -14z m75 -1 c13 -24 -2 -60 -25 -60 -23 0 -38 36 -25 60 6 11 17 20 25
20 8 0 19 -9 25 -20z"/>
<path d="M1149 1903 c-13 -16 -12 -17 4 -4 9 7 17 15 17 17 0 8 -8 3 -21 -13z"/>
<path d="M1476 1977 c-13 -13 -36 -47 -50 -75 -28 -55 -48 -72 -77 -65 -20 5
-49 -12 -49 -29 0 -5 8 -8 17 -6 18 3 43 -34 43 -67 0 -11 8 -34 19 -50 16
-28 26 -32 97 -44 191 -31 617 -21 583 14 -18 18 -509 101 -536 91 -8 -3 -12
-2 -9 3 4 5 -16 12 -43 16 -54 7 -143 54 -104 55 12 0 25 5 28 10 4 6 11 7 17
4 6 -4 8 -2 4 4 -3 6 -1 14 6 19 7 4 24 31 38 58 24 46 58 69 52 35 -1 -10 3
-8 13 5 12 16 18 17 24 7 5 -8 11 -13 15 -13 6 1 8 1 24 -3 4 -2 26 -11 50
-21 31 -13 40 -20 30 -26 -7 -5 -8 -9 -2 -9 5 0 14 4 20 10 6 6 15 5 24 -1 12
-9 12 -10 -3 -5 -10 3 -15 2 -12 -4 3 -5 22 -12 43 -16 20 -4 55 -16 77 -27
22 -12 47 -22 55 -23 8 -2 16 -7 18 -13 2 -5 10 -7 19 -4 12 5 14 3 8 -7 -5
-8 -4 -11 2 -7 5 3 22 -1 37 -9 16 -7 35 -14 43 -14 8 0 12 -4 8 -10 -3 -5 12
-14 33 -19 20 -6 46 -18 57 -27 11 -8 15 -13 8 -10 -11 6 -65 12 -185 21 -90
6 -68 -11 30 -24 119 -15 205 -15 200 1 -7 20 -257 139 -528 250 -52 22 -100
42 -107 45 -7 3 -23 -6 -37 -20z m-72 -212 c20 -8 39 -15 43 -15 5 0 23 -5 41
-11 18 -6 42 -9 53 -6 12 3 17 1 13 -5 -5 -7 4 -9 24 -6 17 2 29 1 27 -3 -3
-3 21 -10 53 -14 31 -4 67 -9 80 -11 13 -2 21 0 17 5 -3 5 7 3 22 -4 16 -8 71
-20 123 -26 94 -13 94 -13 50 -21 -46 -9 -296 -4 -385 8 -27 3 -61 7 -75 7
-14 1 -28 6 -32 12 -5 6 -8 5 -8 -4 0 -11 -3 -11 -15 -1 -8 7 -15 9 -15 4 0
-5 -8 3 -17 16 -10 14 -17 29 -15 34 2 4 -4 19 -13 32 -18 28 -18 28 29 9z"/>
<path d="M997 1822 c-39 -24 -45 -57 -17 -87 45 -48 130 -44 155 6 14 26 14
32 1 58 -22 42 -90 54 -139 23z m107 -11 c20 -8 29 -34 20 -62 -2 -9 -22 -21
-44 -28 -36 -11 -44 -10 -70 9 -17 12 -28 25 -25 30 3 5 1 12 -5 15 -6 4 -1
14 12 25 24 20 77 25 112 11z"/>
<path d="M2125 1760 c-4 -6 1 -7 11 -3 13 5 15 3 9 -7 -5 -9 -4 -11 4 -6 6 4
9 12 6 17 -8 12 -22 12 -30 -1z"/>
<path d="M1350 1613 c-95 -66 -227 -92 -317 -60 -24 8 -43 13 -43 12 0 -2 14
-14 32 -26 17 -13 28 -17 24 -10 -7 10 -3 11 14 6 83 -26 233 10 309 75 35 30
22 32 -19 3z"/>
<path d="M810 1593 c0 -5 9 -19 20 -33 l20 -25 -11 33 c-10 28 -29 45 -29 25z"/>
<path d="M846 1515 c4 -8 15 -32 25 -52 10 -20 19 -50 19 -66 0 -17 4 -26 10
-22 7 4 8 -3 4 -21 -5 -19 -4 -25 5 -20 7 5 11 -1 12 -16 1 -15 3 -17 6 -7 4
15 -31 126 -60 191 -12 29 -31 40 -21 13z"/>
<path d="M1060 1513 c1 -14 72 -54 116 -65 24 -7 44 -16 44 -21 0 -4 4 -5 10
-2 6 4 5 11 -3 19 -6 8 -15 12 -20 9 -13 -8 -80 19 -106 43 -26 24 -41 30 -41
17z"/>
<path d="M1260 1421 c0 -6 4 -13 10 -16 6 -3 7 1 4 9 -7 18 -14 21 -14 7z"/>
<path d="M1291 1340 c25 -66 29 -71 29 -37 0 15 -4 27 -10 27 -5 0 -10 6 -10
13 0 7 -7 22 -15 33 -10 13 -9 2 6 -36z"/>
<path d="M638 1314 c-27 -8 -48 -18 -48 -23 0 -22 118 -133 154 -145 l39 -14
-36 -17 c-30 -14 -147 -132 -147 -148 0 -9 90 -27 140 -27 28 0 65 6 83 14 33
13 97 78 97 98 0 7 5 6 15 -2 8 -7 24 -10 34 -7 13 3 29 -5 48 -25 45 -48 132
-112 213 -156 91 -50 219 -104 230 -97 17 10 50 117 50 159 0 47 -16 103 -36
126 -7 8 -12 35 -12 60 1 66 -22 103 -83 134 -29 14 -54 24 -56 22 -2 -2 3
-21 11 -41 9 -21 16 -40 16 -44 0 -11 -61 -30 -121 -37 -67 -8 -199 12 -199
30 0 19 -34 47 -59 49 -15 1 -21 8 -21 24 0 27 -12 30 -30 8 -12 -14 -17 -12
-44 14 -61 59 -142 75 -238 45z m147 -13 c6 -3 12 -6 15 -6 15 -1 51 -35 46
-44 -4 -5 -1 -13 5 -17 8 -4 9 -3 5 4 -4 7 -1 12 9 12 9 0 13 -4 10 -10 -3 -5
3 -10 14 -10 24 0 26 -6 7 -25 -11 -11 -18 -10 -45 6 -18 11 -38 16 -44 12 -7
-3 -3 4 8 18 11 13 13 19 5 12 -8 -6 -26 -13 -40 -15 -21 -4 -17 -8 35 -32 72
-34 67 -30 59 -50 -14 -36 -129 -8 -173 43 -10 11 -21 17 -25 13 -4 -4 -6 -2
-4 4 2 7 -10 24 -26 39 -27 25 -28 28 -12 37 10 5 26 8 37 5 10 -3 17 -2 14 3
-6 9 85 10 100 1z m620 -96 c19 -20 36 -42 36 -50 5 -52 3 -98 -3 -102 -16 -9
-7 -22 12 -18 14 3 20 -2 20 -15 0 -10 5 -22 11 -26 7 -4 9 -29 5 -70 -9 -100
-15 -117 -40 -110 -20 5 -21 5 -2 -9 21 -16 15 -18 -21 -9 -13 4 -20 11 -16
17 4 6 0 8 -11 4 -9 -4 -24 -3 -34 3 -9 5 -32 15 -49 22 -18 7 -33 17 -33 21
0 5 -4 6 -9 2 -5 -3 -13 0 -17 6 -4 7 -3 9 2 6 6 -3 16 -1 24 4 11 6 5 8 -17
4 -17 -3 -35 0 -38 5 -4 6 -11 8 -16 5 -5 -4 -10 -1 -10 4 -1 6 -2 15 -3 20 0
5 -5 13 -10 18 -5 4 -6 3 -2 -4 4 -8 -1 -11 -13 -10 -15 1 -17 4 -9 14 8 10 7
12 -6 7 -9 -3 -16 -1 -16 5 0 6 -3 10 -7 9 -5 -1 -23 7 -41 18 -22 13 -31 25
-28 37 5 19 -9 23 -18 5 -4 -7 -4 -3 -2 10 3 17 1 21 -8 13 -14 -12 -46 19
-46 44 0 17 16 20 26 4 7 -12 95 -52 101 -45 5 5 -82 56 -96 56 -12 0 -15 32
-5 43 5 5 30 -1 84 -20 45 -16 191 0 229 24 18 11 22 12 16 2 -3 -8 0 -6 8 4
8 10 14 33 13 52 -1 19 0 35 1 35 1 0 18 -16 38 -35z m-440 -8 c11 -13 16 -17
11 -10 -6 10 -4 12 8 7 9 -3 16 -10 16 -16 0 -5 5 -6 10 -3 16 10 12 0 -10
-25 -11 -13 -20 -35 -20 -50 0 -34 -8 -42 -31 -29 -15 7 -25 4 -49 -19 -16
-16 -28 -31 -25 -34 3 -3 -4 -13 -15 -23 -21 -19 -28 -7 -8 13 7 7 9 12 5 12
-3 0 -16 -11 -29 -24 -21 -22 -105 -55 -94 -37 3 4 -11 8 -30 8 -37 1 -68 19
-58 34 3 5 10 6 16 3 8 -5 9 -1 5 11 -6 14 -3 16 13 12 11 -3 18 -1 15 4 -7
11 23 43 48 52 10 4 15 11 12 17 -3 5 0 7 8 4 8 -3 18 0 23 7 5 8 3 10 -6 4
-7 -5 -11 -4 -8 1 4 5 28 7 55 6 67 -5 64 -24 -6 -58 -40 -20 -51 -29 -37 -32
10 -2 22 1 26 8 4 6 10 11 14 11 3 -1 19 5 35 14 26 13 29 20 29 58 -1 43 24
97 45 97 6 0 20 -10 32 -23z"/>
<path d="M1389 1018 c-10 -6 -6 -7 11 -2 21 6 23 5 13 -8 -9 -11 -28 -13 -73
-10 -40 3 -60 1 -60 -7 0 -16 120 -11 148 7 12 8 22 17 22 21 0 10 -46 10 -61
-1z"/>
<path d="M1471 944 c0 -11 3 -14 6 -6 3 7 2 16 -1 19 -3 4 -6 -2 -5 -13z"/>
<path d="M806 1003 c-6 -14 -5 -15 5 -6 7 7 10 15 7 18 -3 3 -9 -2 -12 -12z"/>
<path d="M2006 1202 c-2 -4 4 -8 14 -8 10 0 16 4 14 8 -3 4 -9 8 -14 8 -5 0
-11 -4 -14 -8z"/>
<path d="M603 1035 c0 -8 4 -12 9 -9 5 3 6 10 3 15 -9 13 -12 11 -12 -6z"/>
<path d="M975 990 c-17 -6 -15 -8 10 -13 35 -6 40 -4 23 10 -7 6 -22 7 -33 3z"/>
<path d="M904 968 c-3 -13 -11 -29 -17 -37 -6 -7 -12 -25 -14 -40 -1 -14 1
-19 4 -11 3 8 16 36 29 63 12 26 18 47 14 47 -5 0 -12 -10 -16 -22z"/>
<path d="M700 896 c0 -2 8 -10 18 -17 15 -13 16 -12 3 4 -13 16 -21 21 -21 13z"/>
<path d="M1705 880 c-3 -6 1 -7 9 -4 18 7 21 14 7 14 -6 0 -13 -4 -16 -10z"/>
<path d="M842 852 c-25 -50 -25 -57 -4 -33 12 13 22 32 22 43 0 24 -3 23 -18
-10z"/>
<path d="M1570 816 c0 -2 7 -7 16 -10 8 -3 12 -2 9 4 -6 10 -25 14 -25 6z"/>
<path d="M1500 767 c0 -11 1 -18 3 -16 1 2 8 11 15 20 9 13 9 16 -3 16 -8 0
-15 -9 -15 -20z"/>
<path d="M5309 2553 c-13 -16 -12 -17 4 -4 9 7 17 15 17 17 0 8 -8 3 -21 -13z"/>
<path d="M4330 2512 l-30 -30 0 -377 c0 -328 2 -381 16 -411 33 -68 137 -91
181 -39 26 30 24 56 -8 90 -17 19 -18 47 -21 382 -3 347 -4 363 -23 382 -11
12 -34 23 -52 27 -27 5 -37 1 -63 -24z m65 -7 c41 0 45 -31 45 -390 0 -223 -4
-335 -10 -325 -5 8 -10 10 -10 5 0 -6 8 -18 18 -27 36 -35 41 -45 29 -58 -9
-10 -9 -11 1 -6 6 4 12 4 13 -1 0 -4 2 -16 4 -26 3 -16 -1 -18 -22 -12 -16 4
-22 2 -18 -5 11 -18 -37 -11 -52 8 -10 11 -12 12 -8 2 4 -10 2 -9 -8 3 -8 9
-19 17 -25 17 -18 0 -23 38 -25 186 -4 371 3 602 18 617 8 8 11 18 7 22 -4 5
0 4 8 -1 8 -4 24 -8 35 -9z"/>
<path d="M4416 2433 c-6 -14 -5 -15 5 -6 7 7 10 15 7 18 -3 3 -9 -2 -12 -12z"/>
<path d="M5363 2530 c-54 -22 -54 -24 -51 -460 l3 -402 24 -19 c30 -24 82 -24
112 0 23 19 24 25 29 204 5 177 6 187 28 210 28 30 65 38 104 25 47 -17 53
-38 58 -236 5 -178 6 -184 29 -203 30 -24 82 -24 112 0 24 19 24 21 24 228 0
184 -2 212 -19 246 -57 115 -201 159 -301 91 l-35 -23 0 145 0 146 -29 29
c-30 30 -50 34 -88 19z m78 -46 c15 -16 18 -24 9 -24 -11 0 -11 -3 -2 -12 13
-13 17 -32 5 -25 -9 6 -7 -178 1 -192 4 -5 2 -12 -3 -16 -6 -3 -8 -12 -5 -20
4 -8 10 -13 14 -10 5 3 10 -1 13 -7 3 -10 9 -11 26 0 11 6 28 12 36 12 10 0
13 5 9 12 -5 8 -2 9 12 4 27 -11 26 -11 56 4 27 13 83 6 74 -9 -3 -4 1 -8 9
-8 8 0 12 4 9 9 -15 24 16 2 53 -39 36 -38 41 -49 30 -62 -9 -12 -9 -13 1 -7
8 5 12 1 13 -11 4 -43 11 -368 10 -401 -1 -9 -8 -11 -23 -7 -16 4 -19 3 -9 -3
17 -12 0 -23 -19 -12 -9 5 -20 4 -30 -3 -8 -6 -12 -7 -8 -3 4 5 1 14 -7 20
-12 9 -15 45 -17 187 -2 122 -7 181 -15 191 -7 8 -10 18 -6 21 3 4 -2 7 -12 7
-10 0 -15 3 -12 7 11 10 -51 33 -89 33 -21 0 -37 -6 -43 -17 -6 -10 -11 -13
-11 -8 0 6 -5 3 -10 -5 -9 -13 -11 -13 -20 0 -6 9 -10 10 -10 3 0 -6 5 -15 10
-18 6 -4 8 -11 4 -16 -4 -6 -15 -3 -27 8 -12 9 -16 11 -9 3 6 -8 12 -20 12
-28 0 -8 -5 -10 -12 -6 -9 5 -10 4 -3 -4 11 -12 10 -306 -1 -324 -3 -5 -3 -12
0 -15 6 -6 -32 -43 -43 -43 -15 1 -54 29 -42 30 12 0 11 3 -3 13 -15 11 -17
43 -16 396 0 216 4 391 10 400 14 27 64 24 91 -5z m159 -268 c0 -11 -19 -15
-25 -6 -3 5 1 10 9 10 9 0 16 -2 16 -4z"/>
<path d="M2455 2506 c-13 -13 -26 -39 -30 -57 -3 -19 -5 -197 -3 -396 l3 -363
28 -27 27 -28 226 0 226 0 24 28 c26 30 31 72 11 98 -26 34 -55 39 -211 39
l-156 0 0 105 0 105 133 0 c101 0 138 4 154 15 44 31 37 111 -13 134 -14 6
-78 11 -149 11 l-125 0 0 100 0 100 160 0 c157 0 161 1 185 25 16 15 25 36 25
55 0 19 -9 40 -25 55 l-24 25 -221 0 c-220 0 -221 0 -245 -24z m443 -8 c13
-11 14 -11 7 2 -4 8 3 4 17 -8 22 -20 25 -29 18 -52 -5 -16 -5 -31 -2 -35 4
-3 -7 -1 -23 4 -27 10 -28 10 -11 -4 17 -13 2 -14 -140 -14 -107 1 -162 5
-167 13 -6 7 -7 5 -4 -6 3 -9 1 -18 -6 -21 -19 -6 -23 -190 -5 -208 8 -8 13
-20 11 -26 -3 -8 3 -10 19 -7 13 3 73 7 133 8 107 3 111 2 132 -23 13 -14 18
-28 13 -29 -6 -2 -8 -7 -5 -11 2 -5 -2 -16 -9 -27 -14 -18 -55 -23 -218 -24
-77 0 -86 -11 -87 -106 0 -43 -3 -79 -5 -81 -8 -8 16 -63 25 -57 5 3 9 1 9 -4
0 -6 62 -9 155 -8 85 0 155 -2 155 -6 0 -5 7 -8 15 -8 25 0 35 -41 19 -72 -8
-16 -16 -28 -18 -28 -3 0 -13 -3 -23 -6 -13 -4 -14 -3 -5 3 23 17 -9 29 -58
22 l-45 -7 47 1 c26 1 44 -1 40 -5 -14 -14 -393 -11 -406 3 -8 9 -7 10 4 5 8
-4 6 1 -5 11 -14 12 -21 31 -21 58 -1 22 -2 193 -3 380 l-2 340 23 20 c22 19
39 21 217 23 146 2 197 0 209 -10z"/>
<path d="M2466 2447 c3 -10 9 -15 12 -12 3 3 0 11 -7 18 -10 9 -11 8 -5 -6z"/>
<path d="M2848 2113 c7 -3 16 -2 19 1 4 3 -2 6 -13 5 -11 0 -14 -3 -6 -6z"/>
<path d="M2648 1673 c6 -2 18 -2 25 0 6 3 1 5 -13 5 -14 0 -19 -2 -12 -5z"/>
<path d="M4607 2489 c-11 -6 -25 -27 -33 -46 -13 -31 -13 -38 3 -71 34 -69
130 -66 159 5 33 78 -56 154 -129 112z m78 -31 c6 -1 9 -6 8 -10 -2 -5 4 -8
12 -8 8 0 15 -5 15 -11 0 -5 -5 -7 -11 -3 -8 4 -8 0 0 -15 9 -16 9 -21 -1 -21
-10 0 -10 -2 0 -9 11 -6 10 -10 -5 -16 -44 -19 -76 -17 -95 7 -20 26 -24 43
-7 32 7 -4 7 2 -1 17 -7 13 -9 21 -5 17 4 -4 16 4 27 17 14 19 24 23 36 16 9
-5 22 -11 27 -13z"/>
<path d="M4636 2462 c-3 -5 1 -9 9 -9 8 0 12 4 9 9 -3 4 -7 8 -9 8 -2 0 -6 -4
-9 -8z"/>
<path d="M4629 2383 c-13 -16 -12 -17 4 -4 9 7 17 15 17 17 0 8 -8 3 -21 -13z"/>
<path d="M3325 2245 c-5 -2 -22 -6 -37 -9 -14 -3 -40 -18 -57 -32 -17 -14 -31
-21 -31 -15 0 40 -84 66 -121 38 -36 -27 -39 -52 -39 -292 0 -285 6 -305 90
-305 15 0 38 9 51 19 23 19 24 25 29 198 4 148 8 184 23 206 32 50 122 52 150
3 8 -13 14 -86 17 -204 5 -178 6 -184 29 -203 30 -24 82 -24 112 0 24 19 24
21 24 228 0 197 -1 210 -22 250 -13 23 -35 54 -50 68 -38 35 -131 62 -168 50z
m-182 -36 c11 -7 30 -20 41 -30 23 -22 25 -23 50 -4 10 8 23 12 28 9 5 -3 7 0
6 8 -2 8 4 12 16 10 13 -2 16 1 10 10 -6 10 -4 10 9 -1 11 -9 17 -10 17 -2 0
6 17 11 41 11 22 0 38 -4 35 -9 -4 -5 2 -7 13 -4 12 3 24 -3 33 -16 8 -12 17
-18 21 -15 3 3 14 1 24 -5 11 -6 13 -11 5 -11 -7 0 -10 -5 -7 -10 4 -6 11 -7
17 -4 7 4 8 2 4 -4 -4 -7 -1 -12 6 -12 11 0 10 -2 0 -9 -11 -7 -11 -9 2 -14 9
-4 16 -10 15 -14 -1 -4 0 -10 1 -13 12 -32 14 -370 2 -382 -6 -6 -8 -16 -6
-23 6 -15 -59 -26 -79 -13 -6 4 -7 8 -2 8 6 0 4 4 -3 9 -10 6 -13 43 -12 152
1 79 3 163 4 186 2 23 -1 40 -6 37 -4 -3 -6 -17 -3 -32 5 -25 4 -25 -6 3 -7
17 -17 37 -23 45 -9 13 -9 13 5 2 14 -10 19 -9 30 5 11 15 11 16 0 6 -14 -12
-34 -5 -71 24 -33 26 -130 12 -130 -18 0 -6 -4 -7 -10 -4 -9 5 -12 -8 -9 -31
0 -4 -5 -10 -12 -15 -10 -6 -14 -51 -17 -171 -3 -155 -13 -218 -34 -218 -5 0
-6 5 -2 12 4 7 3 8 -5 4 -6 -4 -19 -2 -28 6 -10 7 -14 8 -10 1 5 -7 1 -9 -12
-6 -19 5 -20 16 -21 219 0 167 2 214 12 215 10 0 10 2 1 6 -15 6 -17 69 -3 78
6 4 7 12 3 18 -3 7 4 3 17 -8 13 -11 20 -15 17 -8 -4 6 -4 13 0 16 5 2 2 2 -4
1 -7 -2 -13 1 -13 6 0 13 17 13 43 -1z"/>
<path d="M3847 2239 c-56 -13 -89 -33 -131 -79 -46 -51 -64 -91 -75 -170 -26
-197 86 -354 252 -352 60 1 102 14 136 45 l24 22 -7 -49 c-12 -92 -57 -131
-147 -130 -42 1 -72 8 -112 29 -66 33 -99 29 -122 -15 -42 -81 76 -154 247
-154 69 0 86 4 145 35 78 40 125 99 142 179 6 30 11 164 11 318 0 290 -2 302
-56 322 -30 12 -81 -5 -95 -31 -10 -19 -10 -19 -38 0 -25 18 -100 42 -126 40
-5 -1 -27 -5 -48 -10z m76 -33 c-4 -6 1 -5 10 3 11 8 17 9 17 3 0 -6 6 -9 14
-6 7 3 28 -7 45 -22 35 -29 31 -30 87 22 7 6 26 9 42 6 23 -3 32 -11 37 -31 4
-14 7 -141 6 -281 -1 -283 -11 -357 -49 -376 -28 -14 -42 -27 -19 -18 9 3 17
2 17 -4 0 -10 -19 -21 -32 -18 -4 0 -15 -9 -23 -21 -9 -13 -25 -23 -36 -23
-10 0 -19 -5 -19 -11 0 -5 -5 -7 -10 -4 -6 4 -7 11 -4 17 4 7 2 8 -5 4 -6 -4
-9 -12 -6 -17 7 -11 3 -12 -85 -13 -38 -1 -70 1 -70 4 0 4 -14 4 -31 2 -24 -3
-30 -1 -24 8 5 9 2 10 -12 6 -29 -9 -95 50 -87 78 10 34 32 46 60 34 13 -6 24
-15 24 -20 0 -5 4 -6 10 -3 5 3 24 -2 41 -11 29 -14 76 -18 151 -11 14 1 24 5
22 8 -7 12 35 41 48 33 7 -4 10 -4 6 1 -4 4 -2 15 5 23 10 13 9 15 -3 8 -8 -4
-7 -1 4 8 10 8 15 19 12 25 -4 5 -2 12 4 16 9 6 5 58 -6 77 -9 13 -36 9 -57
-9 -15 -13 -19 -14 -13 -3 4 8 1 7 -8 -4 -8 -10 -19 -15 -25 -12 -5 4 -12 2
-15 -3 -7 -10 -112 -7 -139 4 -15 6 -16 10 -5 17 9 7 7 8 -8 3 -13 -3 -26 1
-34 10 -7 8 -9 15 -5 15 4 0 2 7 -5 15 -10 13 -9 19 6 38 19 22 19 22 -1 6
-11 -9 -26 -14 -34 -11 -8 3 -5 -5 7 -18 12 -13 19 -26 17 -29 -16 -16 -72
106 -71 156 1 17 -2 29 -6 27 -15 -9 2 137 19 169 9 18 18 37 18 42 1 6 6 9
13 7 7 -1 16 6 19 15 7 19 25 36 57 54 15 9 17 8 11 -3 -4 -7 2 -4 13 7 24 22
117 32 105 11z"/>
<path d="M3874 2110 c-12 -5 -25 -14 -29 -20 -5 -8 -11 -7 -23 2 -13 11 -14
11 -8 0 4 -7 1 -23 -7 -35 -26 -40 -41 -141 -24 -164 5 -7 7 -18 5 -25 -3 -7
1 -19 9 -26 7 -8 10 -19 6 -25 -3 -7 -3 -9 2 -5 11 11 36 -12 28 -26 -3 -6 -2
-8 2 -3 5 4 18 1 29 -6 46 -30 70 -28 132 8 32 19 48 26 35 15 -13 -11 -19
-20 -13 -20 12 0 36 28 38 44 0 6 2 20 3 31 1 14 4 16 9 7 5 -7 7 17 6 55 -3
69 -5 85 -19 116 -4 10 -2 24 6 35 7 9 9 14 5 10 -5 -4 -15 -3 -23 3 -7 6 -13
8 -13 4 0 -3 -15 3 -34 14 -34 22 -85 26 -122 11z m113 -36 c42 -27 58 -64 58
-135 0 -76 -18 -110 -74 -143 -66 -38 -153 19 -167 110 -20 136 85 232 183
168z m58 -4 c3 -5 1 -10 -4 -10 -6 0 -11 5 -11 10 0 6 2 10 4 10 3 0 8 -4 11
-10z"/>
<path d="M3823 1483 c9 -2 23 -2 30 0 6 3 -1 5 -18 5 -16 0 -22 -2 -12 -5z"/>
<path d="M4982 2239 c-85 -16 -144 -71 -158 -145 -18 -97 41 -173 165 -212
104 -34 137 -73 89 -106 -41 -29 -122 -14 -157 28 -33 40 -111 3 -111 -53 0
-123 276 -171 389 -68 49 45 65 133 37 201 -15 37 -77 91 -113 101 -137 34
-194 95 -114 123 28 10 92 -5 114 -27 20 -20 75 -13 91 11 60 86 -84 177 -232
147z m57 -31 c9 -8 11 -9 7 -1 -11 20 76 3 117 -23 26 -17 37 -31 37 -49 0
-14 -5 -25 -11 -25 -5 0 -7 -5 -3 -11 4 -8 -1 -9 -17 -4 -46 13 -79 27 -79 35
0 14 -52 21 -67 9 -11 -10 -13 -10 -11 1 2 7 -3 15 -11 18 -8 3 -11 0 -7 -7 4
-6 2 -11 -4 -11 -6 0 -8 -4 -5 -10 3 -5 -3 -15 -15 -22 -28 -18 -26 -62 5 -86
13 -11 21 -23 17 -27 -4 -5 -2 -5 5 -2 17 10 124 -33 116 -47 -4 -7 -2 -7 7 1
13 12 25 4 76 -45 24 -23 32 -38 14 -27 -6 3 -7 -1 -4 -9 3 -9 10 -14 14 -11
11 7 2 -72 -11 -96 -8 -15 -8 -19 0 -15 18 11 13 1 -14 -28 -13 -14 -29 -26
-35 -26 -5 0 -10 -5 -10 -12 0 -6 -3 -8 -7 -5 -3 4 -12 2 -20 -4 -7 -7 -49
-13 -93 -15 -72 -3 -79 -2 -73 14 6 15 5 15 -10 3 -11 -8 -17 -9 -17 -3 0 7
-7 9 -17 5 -11 -4 -14 -3 -9 5 5 8 1 10 -10 5 -14 -5 -16 -3 -11 12 6 15 5 16
-8 5 -13 -11 -15 -9 -15 11 0 19 -2 21 -10 9 -7 -12 -10 -8 -10 15 0 17 4 35
8 41 10 16 51 24 59 12 3 -7 1 -8 -5 -4 -7 4 -12 5 -12 3 0 -10 79 -46 114
-53 26 -4 43 -2 61 10 14 9 25 14 25 10 0 -4 6 -1 14 6 8 6 12 18 9 26 -3 8
-1 14 5 14 17 0 0 49 -19 55 -10 4 -19 10 -19 15 0 12 -40 26 -82 29 -22 2
-22 3 -3 11 16 7 12 9 -18 9 -22 1 -36 5 -32 11 3 5 0 7 -9 4 -9 -3 -26 5 -40
19 -14 14 -27 23 -29 21 -2 -3 -4 6 -4 18 0 13 -3 31 -8 41 -13 31 14 123 41
138 13 6 21 16 18 20 -3 5 2 6 10 3 9 -4 16 -1 16 6 0 7 7 10 15 7 8 -4 17 -2
20 3 9 14 49 12 64 -2z"/>
<path d="M5110 2196 c0 -2 7 -7 16 -10 8 -3 12 -2 9 4 -6 10 -25 14 -25 6z"/>
<path d="M5040 1965 c14 -8 30 -14 35 -14 6 0 -1 6 -15 14 -14 8 -29 14 -35
14 -5 0 1 -6 15 -14z"/>
<path d="M5076 1734 c-8 -22 -4 -25 11 -9 7 8 9 16 4 19 -5 3 -12 -1 -15 -10z"/>
<path d="M4599 2221 l-24 -19 0 -267 0 -267 24 -19 c30 -24 82 -24 112 0 24
19 24 21 27 262 2 134 0 254 -3 267 -15 58 -88 82 -136 43z m105 -38 c2 -10 5
-129 5 -265 1 -233 0 -248 -18 -248 -10 0 -21 -3 -25 -7 -10 -10 -37 -13 -31
-2 3 4 -5 11 -17 14 l-24 6 2 227 c2 298 1 285 20 278 12 -5 15 -2 10 9 -3 9
-2 14 2 11 4 -2 14 -1 22 4 18 11 47 -4 54 -27z"/>
<path d="M4650 2200 c-9 -6 -10 -10 -3 -10 6 0 15 5 18 10 8 12 4 12 -15 0z"/>
<path d="M3371 1638 c5 -10 11 -18 12 -18 2 0 3 8 3 18 0 10 -6 19 -13 19 -8
0 -9 -6 -2 -19z"/>
<path d="M5541 1521 c-22 -14 -62 -170 -50 -193 24 -45 56 -11 88 96 25 81 24
71 5 90 -18 18 -24 19 -43 7z m28 -57 c-6 -8 -9 -14 -6 -14 3 0 -2 -19 -13
-42 -10 -23 -17 -45 -14 -49 2 -4 -4 -7 -14 -6 -17 1 -17 3 -3 43 8 23 18 41
21 39 3 -2 5 12 4 31 -2 30 0 33 18 23 15 -8 17 -13 7 -25z"/>
<path d="M4196 1472 c-3 -5 1 -9 9 -9 8 0 12 4 9 9 -3 4 -7 8 -9 8 -2 0 -6 -4
-9 -8z"/>
<path d="M4131 1408 c-13 -20 -12 -22 1 -11 8 7 17 11 20 8 2 -3 5 2 5 10 0
21 -10 19 -26 -7z"/>
<path d="M5166 1378 c-13 -19 -16 -61 -16 -263 0 -262 4 -285 55 -285 37 0 58
39 53 100 -3 44 5 61 25 60 1 0 27 -31 57 -70 30 -38 69 -76 86 -84 71 -35
132 31 66 72 -16 9 -54 46 -84 83 l-56 65 59 61 c32 34 59 66 59 72 0 16 -37
51 -54 51 -13 0 -137 -121 -144 -140 -2 -6 -11 -10 -19 -10 -11 0 -13 4 -5 13
5 6 11 65 11 131 2 92 -1 123 -14 142 -20 31 -59 31 -79 2z m57 -27 c-2 -14 1
-20 8 -15 8 5 9 2 2 -10 -5 -9 -6 -41 -3 -71 3 -30 2 -61 -2 -70 -5 -8 -4 -23
2 -35 8 -15 8 -20 -2 -21 -11 0 -11 -2 0 -6 9 -4 10 -8 2 -18 -8 -10 -6 -15 8
-20 28 -8 44 -3 65 23 10 12 25 22 32 22 8 0 17 5 21 12 5 7 2 8 -7 3 -8 -4 1
7 19 25 34 34 78 49 68 23 -3 -7 0 -13 6 -13 6 0 -5 -13 -25 -29 -20 -15 -33
-32 -29 -36 4 -5 2 -5 -5 -2 -6 4 -19 -7 -31 -27 -18 -30 -19 -36 -6 -47 12
-10 12 -14 2 -20 -10 -7 -9 -9 3 -9 19 0 65 -47 56 -57 -10 -9 23 -43 41 -43
11 0 12 -3 3 -14 -9 -11 -6 -13 14 -11 28 4 31 -1 11 -20 -10 -11 -16 -11 -25
-2 -9 9 -11 8 -5 -7 6 -16 4 -17 -13 -8 -32 18 -45 39 -38 64 7 23 7 23 -9 3
-12 -16 -15 -17 -16 -4 0 9 -9 24 -20 34 -11 10 -17 23 -13 29 3 6 2 8 -2 3
-10 -9 -45 21 -45 40 0 10 -6 8 -22 -6 -11 -11 -24 -18 -28 -16 -5 3 -10 -35
-14 -107 0 -11 -9 -18 -21 -19 -20 0 -20 0 0 -9 19 -8 19 -9 -2 -9 -27 -1 -30
14 -5 28 16 10 16 10 0 11 -18 0 -20 41 -22 360 0 8 3 32 7 53 4 26 2 35 -5
31 -6 -4 -9 -3 -6 2 3 5 8 17 11 26 9 25 43 15 40 -11z m208 -418 c13 -16 12
-17 -3 -4 -10 7 -18 15 -18 17 0 8 8 3 21 -13z"/>
<path d="M5300 1089 c0 -5 5 -7 10 -4 6 3 10 8 10 11 0 2 -4 4 -10 4 -5 0 -10
-5 -10 -11z"/>
<path d="M5351 997 c2 -1 13 -9 24 -17 19 -14 19 -14 6 3 -7 9 -18 17 -24 17
-6 0 -8 -1 -6 -3z"/>
<path d="M5660 1344 c-54 -43 -70 -61 -68 -78 5 -37 42 -31 117 21 74 50 91
74 71 98 -21 25 -46 17 -120 -41z m104 19 c3 -8 2 -12 -2 -9 -5 3 -15 -4 -22
-15 -8 -10 -18 -19 -23 -19 -5 0 -26 -13 -46 -28 -50 -40 -58 -43 -58 -27 0 8
3 13 5 10 3 -3 14 7 24 22 10 16 18 25 18 22 0 -4 15 8 33 25 34 35 63 42 71
19z"/>
<path d="M5699 1339 l-24 -20 28 17 c15 9 27 18 27 20 0 8 -8 4 -31 -17z"/>
<path d="M3045 1371 c-3 -5 -2 -12 3 -15 5 -3 9 1 9 9 0 17 -3 19 -12 6z"/>
<path d="M3283 1345 c-3 -9 -3 -18 -1 -21 3 -3 8 4 11 16 6 23 -1 27 -10 5z"/>
<path d="M3341 1346 c-8 -9 -11 -78 -9 -226 3 -190 5 -214 21 -224 12 -8 22
-8 35 0 14 9 18 29 20 110 3 106 15 134 57 134 38 0 47 -24 50 -131 1 -55 7
-105 13 -111 6 -6 22 -8 37 -4 l27 7 -4 130 c-3 129 -3 131 -31 155 -34 29
-101 33 -129 7 -17 -15 -18 -13 -18 63 0 49 -5 85 -12 92 -16 16 -43 15 -57
-2z m37 -85 c0 -42 -4 -58 -12 -55 -16 6 -15 114 0 114 7 0 12 -22 12 -59z
m17 -82 c22 -18 29 -20 36 -8 6 9 9 10 9 2 0 -7 -10 -17 -21 -24 -17 -9 -20
-8 -14 2 6 8 4 10 -4 4 -9 -5 -10 -10 -2 -18 8 -8 6 -16 -7 -31 -12 -14 -13
-17 -2 -11 13 8 13 7 0 -9 -9 -11 -13 -34 -11 -59 7 -88 6 -102 -7 -102 -13 0
-14 12 -12 185 0 8 -2 32 -5 53 -5 43 2 45 40 16z m141 -18 c26 -21 27 -25 27
-108 0 -55 -5 -89 -12 -91 -7 -2 -11 18 -11 61 0 100 -8 127 -37 127 -15 0
-22 4 -17 11 4 8 -1 9 -17 5 -13 -3 -18 -3 -10 0 10 5 11 8 1 14 -8 5 0 7 18
6 16 -2 42 -13 58 -25z m32 -220 c-12 -19 -28 -19 -28 0 0 6 4 8 9 4 5 -3 12
-1 16 5 3 5 8 10 11 10 2 0 -1 -9 -8 -19z"/>
<path d="M3371 1157 c-13 -21 -12 -21 5 -5 10 10 16 20 13 22 -3 3 -11 -5 -18
-17z"/>
<path d="M3928 1350 c-83 -15 -131 -75 -125 -158 5 -69 37 -103 131 -138 101
-37 127 -73 86 -114 -30 -30 -88 -26 -141 10 -39 25 -46 27 -64 16 -46 -30
-27 -83 41 -117 90 -43 208 -23 258 44 29 39 33 123 6 165 -20 32 -34 40 -168
97 -50 21 -64 55 -37 85 24 27 84 26 118 0 70 -55 125 16 56 74 -17 14 -34 26
-37 26 -4 1 -25 4 -47 8 -22 4 -56 5 -77 2z m155 -58 c22 -19 23 -46 1 -38 -8
3 -12 2 -9 -4 3 -6 -2 -10 -11 -10 -10 0 -15 3 -11 6 11 12 -21 34 -39 27 -11
-4 -15 -2 -11 4 9 14 -81 -3 -100 -18 -11 -9 -12 -9 -8 4 4 8 3 17 -2 20 -5 3
-8 -22 -7 -56 0 -36 5 -62 12 -65 7 -2 10 -8 6 -13 -3 -5 -2 -8 3 -7 5 2 26
-4 48 -14 22 -9 54 -21 71 -28 95 -35 121 -147 50 -213 -11 -10 -25 -15 -32
-13 -9 3 -11 -1 -7 -12 6 -15 5 -16 -12 -2 -10 8 -16 10 -12 4 8 -14 -36 -22
-88 -16 -27 3 -33 7 -24 14 10 6 6 7 -10 2 -18 -5 -29 -1 -43 17 -11 13 -16
17 -12 9 4 -9 3 -12 -2 -7 -5 5 -9 12 -9 15 0 4 -4 13 -9 21 -7 10 -6 12 4 6
10 -6 12 -4 7 8 -3 8 0 18 7 20 8 3 13 -1 12 -11 -1 -10 7 -17 19 -17 11 0 19
-5 18 -11 -1 -7 24 -11 72 -11 41 -1 73 2 71 6 -6 9 21 31 29 23 4 -4 4 4 0
17 -6 18 -4 22 6 15 12 -7 12 -5 1 9 -8 9 -11 20 -8 26 4 5 -8 21 -26 36 -18
15 -27 24 -20 20 17 -9 15 0 -5 16 -14 12 -16 12 -8 0 12 -21 -44 -5 -71 20
-11 10 -24 19 -29 19 -5 0 0 -7 11 -16 18 -14 18 -14 -6 -3 -14 7 -32 20 -41
30 -9 10 -18 16 -21 14 -5 -5 -6 -1 -11 60 -5 46 8 79 28 71 9 -3 12 0 9 8 -3
8 0 17 5 21 6 3 9 10 6 14 -2 5 5 9 18 9 45 2 98 9 104 15 6 7 60 -18 86 -41z"/>
<path d="M3856 1222 c-2 -4 -1 -14 3 -21 6 -10 10 -9 14 3 6 16 -8 32 -17 18z"/>
<path d="M4024 1086 c11 -9 24 -16 30 -16 12 0 7 5 -24 19 -24 11 -24 11 -6
-3z"/>
<path d="M4065 1020 c10 -11 20 -20 23 -20 3 0 -3 9 -13 20 -10 11 -20 20 -23
20 -3 0 3 -9 13 -20z"/>
<path d="M3958 883 c7 -3 16 -2 19 1 4 3 -2 6 -13 5 -11 0 -14 -3 -6 -6z"/>
<path d="M2992 1328 c-7 -7 -12 -21 -12 -33 0 -44 60 -63 80 -26 14 27 13 37
-6 55 -18 19 -45 21 -62 4z m44 -25 c-15 -4 -16 -7 -5 -14 10 -6 8 -8 -8 -6
-17 1 -19 4 -11 14 6 7 18 12 27 12 12 -1 11 -2 -3 -6z"/>
<path d="M2427 1323 c-14 -13 -6 -67 33 -230 22 -92 48 -175 57 -185 21 -23
58 -23 82 1 17 17 70 205 72 257 1 28 13 -12 39 -128 23 -106 48 -148 86 -148
45 0 60 30 104 213 23 96 40 186 38 198 -4 28 -48 38 -66 16 -7 -8 -25 -79
-42 -158 -17 -79 -32 -148 -33 -153 -2 -5 -16 49 -31 120 -39 175 -48 194 -84
194 -16 0 -34 -6 -40 -13 -12 -14 -72 -255 -72 -288 0 -10 4 -19 9 -19 12 0
23 29 15 41 -3 5 -1 9 4 9 13 0 23 -28 12 -32 -5 -2 -10 -16 -12 -33 -2 -16
-9 -39 -16 -50 -10 -18 -11 -18 -12 -2 0 10 -5 15 -10 12 -6 -4 -8 -10 -6 -14
3 -4 -1 -8 -9 -8 -8 0 -12 4 -9 8 2 4 -4 13 -13 19 -16 10 -15 11 7 6 l25 -5
-24 18 c-18 13 -25 29 -25 55 -1 20 -4 36 -8 36 -9 0 -31 98 -23 110 3 5 1 10
-5 10 -6 0 -9 8 -6 18 3 9 -1 30 -9 45 -14 27 -11 57 6 57 9 0 10 -2 14 -36 1
-12 6 -28 11 -35 5 -8 7 -24 5 -37 -1 -13 3 -30 11 -39 7 -9 12 -19 11 -22
-11 -25 26 -129 53 -152 16 -13 16 -12 4 10 -7 13 -26 90 -42 170 -16 80 -34
152 -40 159 -11 13 -50 17 -61 5z m485 -35 c3 -7 -4 -44 -14 -83 -11 -38 -22
-87 -25 -107 -3 -21 -9 -38 -15 -38 -5 0 -7 -4 -4 -8 3 -5 -1 -32 -8 -60 -8
-28 -11 -54 -7 -58 3 -4 0 -4 -6 0 -7 4 -13 2 -13 -4 0 -6 -4 -8 -10 -5 -5 3
-10 0 -11 -7 0 -10 -2 -10 -6 0 -2 6 -9 10 -14 6 -5 -3 -9 0 -9 5 0 22 -1 27
-16 49 -9 13 -13 30 -10 37 3 8 1 17 -5 20 -5 4 -7 10 -4 15 3 5 1 11 -4 14
-4 3 -7 23 -5 45 2 23 -2 43 -8 47 -8 5 -9 2 -5 -10 4 -10 3 -15 -3 -11 -6 3
-10 13 -10 21 0 9 -7 22 -15 30 -9 9 -15 11 -15 4 0 -6 -4 -8 -10 -5 -6 3 -7
-1 -4 -9 9 -22 -3 -20 -15 3 -16 28 15 111 40 111 11 0 21 -6 23 -12 12 -41
50 -207 52 -231 5 -42 27 -59 59 -47 20 8 26 16 25 42 0 50 11 118 20 118 4 0
6 14 4 31 -3 20 0 28 8 23 7 -4 8 -3 4 5 -8 13 11 81 24 81 4 0 10 -6 12 -12z
m-273 -154 c-6 -7 -9 -17 -6 -21 7 -11 -10 -53 -22 -53 -9 0 -6 27 6 60 3 8 5
26 4 40 -2 24 -1 24 14 6 10 -14 12 -23 4 -32z"/>
<path d="M2811 961 c-8 -5 -9 -11 -3 -15 5 -3 12 1 16 9 6 17 6 18 -13 6z"/>
<path d="M4236 1314 c-10 -9 -16 -33 -16 -60 0 -40 -2 -44 -25 -44 -14 0 -29
-8 -35 -20 -15 -28 4 -60 35 -60 l25 0 0 -111 c0 -114 7 -142 44 -171 38 -31
146 -19 160 17 11 31 -11 54 -57 57 l-42 3 -3 103 -3 102 45 0 c40 0 46 3 52
25 11 42 -1 55 -51 55 l-45 0 0 44 c0 48 -19 76 -50 76 -10 0 -26 -7 -34 -16z
m48 -16 c-3 -5 0 -15 6 -23 7 -9 10 -28 7 -45 -6 -27 -4 -30 31 -40 20 -5 45
-10 55 -10 9 0 17 -6 17 -14 0 -9 -16 -15 -46 -19 -26 -2 -50 -11 -54 -18 -5
-7 -6 -53 -4 -103 5 -126 7 -136 21 -125 7 7 14 6 18 -1 4 -6 19 -9 35 -5 19
4 29 2 33 -9 7 -17 -8 -30 -23 -21 -5 3 -10 2 -10 -4 0 -6 -7 -8 -16 -4 -9 3
-20 0 -25 -8 -7 -11 -9 -11 -9 3 0 9 -5 20 -12 24 -6 4 -8 3 -5 -3 4 -6 0 -14
-8 -17 -10 -3 -18 1 -22 12 -4 9 -13 23 -20 31 -10 9 -13 41 -12 116 2 83 -1
107 -14 119 -8 9 -20 16 -26 16 -6 0 -11 2 -11 4 0 2 -3 12 -7 22 -4 12 -3 15
5 10 7 -4 12 -1 13 6 0 10 2 10 6 0 9 -22 41 35 37 66 -1 14 1 31 6 38 11 13
42 15 34 2z"/>
<path d="M3147 1294 c-4 -4 -7 -26 -7 -50 0 -32 -4 -41 -16 -40 -21 1 -39 -27
-31 -48 4 -9 16 -16 27 -16 19 0 20 -6 20 -100 0 -94 2 -103 25 -125 30 -31
93 -34 119 -6 24 27 11 51 -29 51 -41 0 -45 10 -45 105 l0 74 38 3 c32 3 37 7
40 30 3 29 -22 44 -57 33 -18 -5 -20 0 -23 42 -3 43 -6 48 -28 51 -14 2 -29 0
-33 -4z m40 -55 c-1 -10 -5 -15 -9 -13 -4 3 -8 1 -8 -5 0 -5 9 -12 19 -16 26
-8 31 -45 9 -67 -14 -14 -16 -30 -11 -95 3 -43 10 -80 15 -81 4 -2 13 -12 18
-23 9 -16 7 -19 -11 -19 -15 0 -19 4 -15 16 6 15 4 15 -11 3 -11 -9 -14 -10
-9 -1 4 7 2 12 -6 12 -9 0 -9 3 2 10 11 7 12 10 2 10 -11 0 -13 17 -10 79 4
67 2 81 -13 92 -17 12 -17 15 1 60 12 34 14 49 6 53 -6 2 -1 3 11 3 14 -1 21
-7 20 -18z m68 -69 c19 -8 19 -9 -2 -9 -12 -1 -25 4 -28 9 -7 12 2 12 30 0z
m15 -246 c0 -2 -7 -4 -15 -4 -8 0 -15 4 -15 10 0 5 7 7 15 4 8 -4 15 -8 15
-10z"/>
<path d="M3172 1040 c0 -14 2 -19 5 -12 2 6 2 18 0 25 -3 6 -5 1 -5 -13z"/>
<path d="M4566 1210 c-67 -20 -119 -103 -119 -190 0 -137 110 -223 237 -186
59 17 88 43 112 101 33 80 17 179 -39 233 -52 50 -116 64 -191 42z m107 -23
c18 -8 35 -15 39 -16 39 -9 75 -59 64 -87 -3 -8 -1 -14 4 -14 6 0 10 -23 10
-51 0 -35 -3 -48 -12 -43 -6 4 -8 3 -5 -3 9 -14 -21 -85 -33 -78 -5 3 -14 -3
-20 -14 -12 -24 -68 -42 -92 -30 -9 5 -28 9 -43 9 -44 0 -99 52 -111 103 -1 4
-3 10 -4 15 -1 4 -2 9 -2 12 6 59 14 115 18 119 3 3 10 -1 15 -9 8 -12 9 -10
4 6 -7 27 4 57 19 51 7 -3 23 1 37 9 13 7 20 13 16 14 -5 0 -17 -5 -28 -10
-10 -6 -19 -8 -19 -5 0 9 63 34 88 35 12 0 37 -6 55 -13z"/>
<path d="M4618 1183 c7 -3 16 -2 19 1 4 3 -2 6 -13 5 -11 0 -14 -3 -6 -6z"/>
<path d="M4626 1149 c-28 -4 -54 -5 -59 -2 -5 3 -8 0 -5 -8 2 -7 -6 -29 -19
-48 -30 -44 -28 -94 3 -137 13 -17 20 -35 16 -39 -4 -5 -2 -5 5 -2 6 4 17 1
25 -6 19 -19 48 -28 48 -16 0 6 7 8 16 5 10 -4 13 -2 8 6 -5 7 0 9 14 6 16 -4
19 -2 15 10 -5 11 -2 14 11 9 11 -4 15 -3 11 4 -4 6 -1 18 7 27 17 20 23 91 9
111 -6 9 -4 26 5 47 8 19 12 34 9 34 -3 0 -10 -12 -16 -27 l-10 -26 -22 24
c-12 13 -21 27 -19 31 1 5 1 7 0 7 -2 -1 -25 -5 -52 -10z m59 -44 c20 -20 25
-34 25 -78 0 -73 -26 -107 -80 -107 -54 0 -80 34 -80 107 0 65 29 103 80 103
19 0 40 -9 55 -25z"/>
<path d="M4876 1198 c-13 -18 -16 -53 -16 -173 0 -120 3 -155 16 -173 17 -24
56 -29 72 -9 6 6 12 63 14 125 3 111 4 114 32 139 20 17 37 23 55 20 38 -7 61
9 61 43 0 50 -74 69 -122 31 -24 -20 -25 -20 -41 0 -22 25 -52 24 -71 -3z
m174 -10 c0 -10 2 -10 8 -1 15 24 30 -1 24 -41 -1 -5 -14 1 -29 15 -16 13 -22
17 -15 9 18 -21 15 -35 -5 -19 -14 12 -16 12 -8 0 6 -11 4 -13 -8 -8 -9 3 -18
-1 -21 -10 -5 -12 -9 -13 -20 -4 -12 10 -14 9 -12 -6 2 -10 -3 -27 -10 -38
-10 -13 -14 -51 -14 -117 0 -86 -2 -98 -19 -108 -13 -6 -22 -7 -26 0 -5 7 -8
213 -5 318 0 17 35 15 50 -3 15 -19 36 -19 47 -1 14 24 63 35 63 14z"/>
<path d="M5000 1169 c0 -5 5 -7 10 -4 6 3 10 8 10 11 0 2 -4 4 -10 4 -5 0 -10
-5 -10 -11z"/>
<path d="M2990 1191 c-5 -11 -10 -74 -10 -141 0 -67 5 -130 10 -141 12 -21 40
-25 58 -7 17 17 17 279 0 296 -18 18 -46 14 -58 -7z m47 -142 c1 -68 -3 -117
-8 -113 -5 3 -9 0 -9 -7 0 -7 -2 -10 -5 -7 -3 3 -7 59 -8 125 -2 103 0 119 14
120 14 1 16 -15 16 -118z"/>
<path d="M5637 1173 c-4 -3 -7 -17 -7 -29 0 -29 19 -34 125 -37 77 -2 80 -1
83 21 6 43 -13 52 -108 52 -47 0 -90 -3 -93 -7z m129 -22 c-3 -4 5 -7 17 -6
12 0 22 -4 22 -10 0 -10 -7 -10 -95 -5 -52 4 -63 8 -55 21 4 5 31 8 60 8 30
-1 53 -5 51 -8z"/>
<path d="M5016 1092 c-3 -5 1 -9 9 -9 8 0 12 4 9 9 -3 4 -7 8 -9 8 -2 0 -6 -4
-9 -8z"/>
</g>
</svg>
